<?xml version="1.0" encoding="UTF-8"?>
<!DOCTYPE svg PUBLIC "-//W3C//DTD SVG 1.1//EN" "http://www.w3.org/Graphics/SVG/1.1/DTD/svg11.dtd">
<svg xmlns="http://www.w3.org/2000/svg" version="1.1" width="64px" height="64px" style="shape-rendering:geometricPrecision; text-rendering:geometricPrecision; image-rendering:optimizeQuality; fill-rule:evenodd; clip-rule:evenodd" xmlns:xlink="http://www.w3.org/1999/xlink">
<g><path style="opacity:1" fill="#6233e6" d="M 24.5,-0.5 C 29.1667,-0.5 33.8333,-0.5 38.5,-0.5C 51.158,3.49132 59.4913,11.8247 63.5,24.5C 63.5,29.1667 63.5,33.8333 63.5,38.5C 59.4913,51.1753 51.158,59.5087 38.5,63.5C 33.5,63.5 28.5,63.5 23.5,63.5C 21.4234,61.6394 19.0901,61.3061 16.5,62.5C 13.7203,60.3957 10.7203,58.5624 7.5,57C 5.03153,51.0453 2.36486,45.212 -0.5,39.5C -0.5,34.5 -0.5,29.5 -0.5,24.5C 3.5,11.8333 11.8333,3.5 24.5,-0.5 Z"/></g>
<g><path style="opacity:1" fill="#faf8fe" d="M 23.5,3.5 C 35.5209,1.19519 45.5209,4.52852 53.5,13.5C 53.3333,13.8333 53.1667,14.1667 53,14.5C 51.9326,13.8095 50.7659,13.3095 49.5,13C 43.8333,12.3333 38.1667,12.3333 32.5,13C 24.2263,16.5233 19.893,22.8566 19.5,32C 20.826,37.7579 21.6593,43.5912 22,49.5C 23.5,52.3333 25.6667,54.5 28.5,56C 32.749,57.1256 37.0823,57.7923 41.5,58C 35.5933,59.3608 29.5933,59.8608 23.5,59.5C 23.8957,56.9556 23.229,54.7889 21.5,53C 18.7003,51.5153 16.0336,49.8486 13.5,48C 11.8876,47.2797 10.3876,47.4464 9,48.5C -0.725984,34.1355 0.774016,20.9689 13.5,9C 16.7667,6.8703 20.1,5.03697 23.5,3.5 Z"/></g>
<g><path style="opacity:1" fill="#f7f4fe" d="M 35.5,24.5 C 43.2549,23.5964 47.9216,26.9298 49.5,34.5C 49.1527,37.5277 47.986,40.1944 46,42.5C 46.701,50.4693 43.0343,54.8026 35,55.5C 28.5822,54.91 24.4156,51.5767 22.5,45.5C 22.7605,43.8129 23.4272,42.3129 24.5,41C 20.5899,36.2608 20.5899,31.5941 24.5,27C 26.8087,26.2438 28.8087,26.7438 30.5,28.5C 32.21,27.1128 33.8767,25.7794 35.5,24.5 Z"/></g>
<g><path style="opacity:1" fill="#f6f3fd" d="M 52.5,36.5 C 58.0666,35.7532 59.9,38.0866 58,43.5C 56.4993,45.5836 54.4993,46.9169 52,47.5C 49.942,46.9422 48.7753,45.6089 48.5,43.5C 49.0707,40.6873 50.4041,38.354 52.5,36.5 Z"/></g>
<g><path style="opacity:1" fill="#8058eb" d="M 25.5,36.5 C 28.5688,36.963 29.0688,38.2963 27,40.5C 25.8118,39.4366 25.3118,38.1033 25.5,36.5 Z"/></g>
<g><path style="opacity:1" fill="#5d2de5" d="M 33.5,36.5 C 35.332,37.1405 35.6653,38.1405 34.5,39.5C 33.6143,38.675 33.281,37.675 33.5,36.5 Z"/></g>
<g><path style="opacity:1" fill="#a68bf1" d="M 53.5,39.5 C 54.4345,40.5676 54.7678,41.901 54.5,43.5C 51.4017,43.5875 51.0684,43.0875 53.5,42C 52.4019,41.2303 52.4019,40.397 53.5,39.5 Z"/></g>
<g><path style="opacity:1" fill="#f8f6fe" d="M 9.5,49.5 C 10.8734,49.3433 12.2068,49.51 13.5,50C 11.3036,51.2225 9.80361,53.0558 9,55.5C 8.32239,53.4024 8.48905,51.4024 9.5,49.5 Z"/></g>
<g><path style="opacity:1" fill="#f7f4fd" d="M 12.5,51.5 C 14.1992,51.3398 15.8659,51.5065 17.5,52C 15.7071,53.7799 14.0404,55.6132 12.5,57.5C 11.4808,55.5405 11.4808,53.5405 12.5,51.5 Z"/></g>
<g><path style="opacity:1" fill="#ede6fc" d="M 17.5,53.5 C 19.9124,53.244 21.5791,54.244 22.5,56.5C 20.234,57.4324 18.234,58.7658 16.5,60.5C 15.1544,57.9004 15.4877,55.5671 17.5,53.5 Z"/></g>
</svg>
